# Alias OBJ Model File
# Exported from SketchUp, (c) 2000-2012 Trimble Navigation Limited
# File units = meters

mtllib coin.mtl

g Mesh1 Model

usemtl FrontColor
v -4.24264 4.24264 -0.75
vt -29.5276 23.1537
vn -0.77301 0.634393 -0
v -4.98882 3.33342 -0.75
vt -29.5276 -23.1537
v -4.98882 3.33342 0.75
vt 29.5276 -23.1537
v -4.24264 4.24264 0.75
vt 29.5276 23.1537
f 1/1/1 2/2/1 3/3/1 4/4/1 

vt 167.033 167.033
vn 0 0 -1
v -3.18198 3.18198 -0.75
vt 125.275 125.275
v -3.74161 2.50007 -0.75
vt 147.308 98.4278
vt 196.41 131.237
f 1/5/2 5/6/2 6/7/2 2/8/2 

v -3.33342 4.98882 -0.75
vt 131.237 196.41
v -2.50007 3.74161 -0.75
vt 98.4278 147.308
f 7/9/2 8/10/2 5/6/2 1/5/2 

v -2.2961 5.54328 -0.75
vt 90.3977 218.239
v -1.72208 4.15746 -0.75
vt 67.7982 163.679
f 9/11/2 10/12/2 8/10/2 7/9/2 

v -1.17054 5.88471 -0.75
vt 46.0843 231.682
v -0.877906 4.41353 -0.75
vt 34.5632 173.761
f 11/13/2 12/14/2 10/12/2 9/11/2 

v -2.16573e-015 6 -0.75
vt 8.52651e-014 236.22
v 4.33147e-015 4.5 -0.75
vt -1.7053e-013 177.165
f 13/15/2 14/16/2 12/14/2 11/13/2 

v 1.17054 5.88471 -0.75
vt -46.0843 231.682
v 0.877906 4.41353 -0.75
vt -34.5632 173.761
f 15/17/2 16/18/2 14/16/2 13/15/2 

v 2.2961 5.54328 -0.75
vt -90.3977 218.239
v 1.72208 4.15746 -0.75
vt -67.7982 163.679
f 17/19/2 18/20/2 16/18/2 15/17/2 

v 3.33342 4.98882 -0.75
vt -131.237 196.41
v 2.50007 3.74161 -0.75
vt -98.4278 147.308
f 19/21/2 20/22/2 18/20/2 17/19/2 

v 4.24264 4.24264 -0.75
vt -167.033 167.033
v 3.18198 3.18198 -0.75
vt -125.275 125.275
f 21/23/2 22/24/2 20/22/2 19/21/2 

v 4.98882 3.33342 -0.75
vt -196.41 131.237
v 3.74161 2.50007 -0.75
vt -147.308 98.4278
f 23/25/2 24/26/2 22/24/2 21/23/2 

v 5.54328 2.2961 -0.75
vt -218.239 90.3977
v 4.15746 1.72208 -0.75
vt -163.679 67.7982
f 25/27/2 26/28/2 24/26/2 23/25/2 

v 5.88471 1.17054 -0.75
vt -231.682 46.0843
v 4.41353 0.877906 -0.75
vt -173.761 34.5632
f 27/29/2 28/30/2 26/28/2 25/27/2 

v 6 -7.21911e-016 -0.75
vt -236.22 -2.84217e-014
v 4.5 -7.21911e-016 -0.75
vt -177.165 -2.84217e-014
f 29/31/2 30/32/2 28/30/2 27/29/2 

v 5.88471 -1.17054 -0.75
vt -231.682 -46.0843
v 4.41353 -0.877906 -0.75
vt -173.761 -34.5632
f 31/33/2 32/34/2 30/32/2 29/31/2 

v 5.54328 -2.2961 -0.75
vt -218.239 -90.3977
v 4.15746 -1.72208 -0.75
vt -163.679 -67.7982
f 33/35/2 34/36/2 32/34/2 31/33/2 

v 4.98882 -3.33342 -0.75
vt -196.41 -131.237
v 3.74161 -2.50007 -0.75
vt -147.308 -98.4278
f 35/37/2 36/38/2 34/36/2 33/35/2 

v 4.24264 -4.24264 -0.75
vt -167.033 -167.033
v 3.18198 -3.18198 -0.75
vt -125.275 -125.275
f 37/39/2 38/40/2 36/38/2 35/37/2 

v 3.33342 -4.98882 -0.75
vt -131.237 -196.41
v 2.50007 -3.74161 -0.75
vt -98.4278 -147.308
f 39/41/2 40/42/2 38/40/2 37/39/2 

v 2.2961 -5.54328 -0.75
vt -90.3977 -218.239
v 1.72208 -4.15746 -0.75
vt -67.7982 -163.679
f 41/43/2 42/44/2 40/42/2 39/41/2 

v 1.17054 -5.88471 -0.75
vt -46.0843 -231.682
v 0.877906 -4.41353 -0.75
vt -34.5632 -173.761
f 43/45/2 44/46/2 42/44/2 41/43/2 

v -2.16573e-015 -6 -0.75
vt 8.52651e-014 -236.22
v 2.16573e-015 -4.5 -0.75
vt -8.52651e-014 -177.165
f 45/47/2 46/48/2 44/46/2 43/45/2 

v -1.17054 -5.88471 -0.75
vt 46.0843 -231.682
v -0.877906 -4.41353 -0.75
vt 34.5632 -173.761
f 47/49/2 48/50/2 46/48/2 45/47/2 

v -2.2961 -5.54328 -0.75
vt 90.3977 -218.239
v -1.72208 -4.15746 -0.75
vt 67.7982 -163.679
f 49/51/2 50/52/2 48/50/2 47/49/2 

v -3.33342 -4.98882 -0.75
vt 131.237 -196.41
v -2.50007 -3.74161 -0.75
vt 98.4278 -147.308
f 51/53/2 52/54/2 50/52/2 49/51/2 

v -4.24264 -4.24264 -0.75
vt 167.033 -167.033
v -3.18198 -3.18198 -0.75
vt 125.275 -125.275
f 53/55/2 54/56/2 52/54/2 51/53/2 

v -4.98882 -3.33342 -0.75
vt 196.41 -131.237
v -3.74161 -2.50007 -0.75
vt 147.308 -98.4278
f 55/57/2 56/58/2 54/56/2 53/55/2 

v -5.54328 -2.2961 -0.75
vt 218.239 -90.3977
v -4.15746 -1.72208 -0.75
vt 163.679 -67.7982
f 57/59/2 58/60/2 56/58/2 55/57/2 

v -5.88471 -1.17054 -0.75
vt 231.682 -46.0843
v -4.41353 -0.877906 -0.75
vt 173.761 -34.5632
f 59/61/2 60/62/2 58/60/2 57/59/2 

v -6 -7.21911e-016 -0.75
vt 236.22 -2.84217e-014
v -4.5 -7.21911e-016 -0.75
vt 177.165 -2.84217e-014
f 61/63/2 62/64/2 60/62/2 59/61/2 

v -5.88471 1.17054 -0.75
vt 231.682 46.0843
v -4.41353 0.877906 -0.75
vt 173.761 34.5632
f 63/65/2 64/66/2 62/64/2 61/63/2 

v -5.54328 2.2961 -0.75
vt 218.239 90.3977
v -4.15746 1.72208 -0.75
vt 163.679 67.7982
f 65/67/2 66/68/2 64/66/2 63/65/2 

f 2/8/2 6/7/2 66/68/2 65/67/2 

vt 29.5276 -17.3652
vn 0.881921 -0.471397 -6.81542e-016
vt 29.5276 17.3652
v -3.74161 2.50007 -0.0375
vt 1.47638 17.3652
v -4.15746 1.72208 -0.4125
vt 16.2402 -17.3652
f 66/69/3 6/70/3 67/71/3 68/72/3 

vn 0.77301 -0.634393 8.09964e-016
v -3.18198 3.18198 -0.4125
vt 16.2402 17.3652
vt 1.47638 -17.3652
f 6/69/4 5/70/4 69/73/4 67/74/4 

vn 0.634393 -0.77301 -8.00245e-015
v -2.50007 3.74161 -0.0375
f 5/69/5 8/70/5 70/71/5 69/72/5 

vn 0.471397 -0.881921 -8.80325e-015
v -1.72208 4.15746 -0.4125
f 8/69/6 10/70/6 71/73/6 70/74/6 

vn 0.290285 -0.95694 -5.91473e-015
v -0.877906 4.41353 -0.0375
f 10/69/7 12/70/7 72/71/7 71/72/7 

vn 0.0980171 -0.995185 -2.42848e-015
v 5.77529e-015 4.5 -0.4125
f 12/69/8 14/70/8 73/73/8 72/74/8 

vt -29.5276 17.3652
vn -0.0980171 -0.995185 4.47948e-015
vt -29.5276 -17.3652
v 0.877906 4.41353 -0.0375
vt -1.47638 -17.3652
vt -16.2402 17.3652
f 14/75/9 16/76/9 74/77/9 73/78/9 

vn -0.290285 -0.95694 3.84719e-015
v 1.72208 4.15746 -0.4125
vt -16.2402 -17.3652
vt -1.47638 17.3652
f 16/75/10 18/76/10 75/79/10 74/80/10 

vn -0.471397 -0.881921 -1.36308e-015
v 2.50007 3.74161 -0.0375
f 18/75/11 20/76/11 76/77/11 75/78/11 

vn -0.634393 -0.77301 -2.39749e-015
v 3.18198 3.18198 -0.4125
f 20/75/12 22/76/12 77/79/12 76/80/12 

vn -0.77301 -0.634393 2.59189e-016
v 3.74161 2.50007 -0.0375
f 22/75/13 24/76/13 78/77/13 77/78/13 

vn -0.881921 -0.471397 2.69777e-015
v 4.15746 1.72208 -0.4125
f 24/75/14 26/76/14 79/79/14 78/80/14 

vn -0.95694 -0.290285 1.96285e-015
v 4.41353 0.877906 -0.0375
f 26/75/15 28/76/15 80/77/15 79/78/15 

vn -0.995185 -0.0980171 1.64206e-015
v 4.5 -6.4972e-015 -0.4125
f 28/75/16 30/76/16 81/79/16 80/80/16 

vn -0.995185 0.0980171 2.23974e-015
v 4.41353 -0.877906 -0.0375
f 30/75/17 32/76/17 82/77/17 81/78/17 

vn -0.95694 0.290285 2.64331e-015
v 4.15746 -1.72208 -0.4125
f 32/75/18 34/76/18 83/79/18 82/80/18 

vn -0.881921 0.471397 2.58418e-015
v 3.74161 -2.50007 -0.0375
f 34/75/19 36/76/19 84/77/19 83/78/19 

vn -0.77301 0.634393 1.91152e-015
v 3.18198 -3.18198 -0.4125
f 36/75/20 38/76/20 85/79/20 84/80/20 

vn -0.634393 0.77301 2.65668e-015
v 2.50007 -3.74161 -0.0375
f 38/75/21 40/76/21 86/77/21 85/78/21 

vn -0.471397 0.881921 -9.3712e-016
v 1.72208 -4.15746 -0.4125
f 40/75/22 42/76/22 87/79/22 86/80/22 

vn -0.290285 0.95694 -6.54284e-016
v 0.877906 -4.41353 -0.0375
f 42/75/23 44/76/23 88/77/23 87/78/23 

vn -0.0980171 0.995185 -4.0265e-016
v 4.33147e-015 -4.5 -0.4125
f 44/75/24 46/76/24 89/79/24 88/80/24 

vn 0.0980171 0.995185 8.36756e-016
v -0.877906 -4.41353 -0.0375
f 46/69/25 48/70/25 90/71/25 89/72/25 

vn 0.290285 0.95694 -8.63655e-016
v -1.72208 -4.15746 -0.4125
f 48/69/26 50/70/26 91/73/26 90/74/26 

vn 0.471397 0.881921 -2.21501e-015
v -2.50007 -3.74161 -0.0375
f 50/69/27 52/70/27 92/71/27 91/72/27 

vn 0.634393 0.77301 -2.2679e-016
v -3.18198 -3.18198 -0.4125
f 52/69/28 54/70/28 93/73/28 92/74/28 

vn 0.77301 0.634393 -2.94827e-015
v -3.74161 -2.50007 -0.0375
f 54/69/29 56/70/29 94/71/29 93/72/29 

vn 0.881921 0.471397 -1.02231e-015
v -4.15746 -1.72208 -0.4125
f 56/69/30 58/70/30 95/73/30 94/74/30 

vn 0.95694 0.290285 3.50696e-015
v -4.41353 -0.877906 -0.0375
f 58/69/31 60/70/31 96/71/31 95/72/31 

vn 0.995185 0.0980171 1.25828e-015
v -4.5 -6.4972e-015 -0.4125
f 60/69/32 62/70/32 97/73/32 96/74/32 

vn 0.995185 -0.0980171 -2.64868e-015
v -4.41353 0.877906 -0.0375
f 62/69/33 64/70/33 98/71/33 97/72/33 

vn 0.95694 -0.290285 -2.69565e-015
f 64/69/34 66/70/34 68/73/34 98/74/34 

v 5.77529e-015 -5.05338e-015 -0.4125
vt -2.61991 5.8166
vn -0.150324 -0.362915 -0.919617
vt 171.247 42.9087
vt 158.916 78.5754
f 99/81/35 98/82/35 68/83/35

vt -2.2813e-013 -6.3794
vn -4.28274e-017 0.392817 -0.919617
vt 177.165 -6.3794
vt 173.761 31.205
f 99/84/36 97/85/36 98/86/36

vt -2.23592e-013 6.3794
vn 2.14137e-016 -0.392817 -0.919617
vt 173.761 -31.205
vt 177.165 6.3794
f 99/87/37 96/88/37 97/89/37

vt -2.61991 -5.8166
vn -0.150324 0.362915 -0.919617
vt 158.916 -78.5754
vt 171.247 -42.9087
f 99/90/38 95/91/38 96/92/38

vt 2.61991 5.8166
vn 0.150324 -0.362915 -0.919617
vt 145.616 -99.8128
vt 164.155 -66.9422
f 99/93/39 94/94/39 95/95/39

vt -4.6957 -4.31824
vn -0.277763 0.277763 -0.919617
vt 115.228 -134.725
vt 140.589 -106.778
f 99/96/40 93/97/40 94/98/40

vt 4.6957 4.31824
vn 0.277763 -0.277763 -0.919617
vt 94.6505 -149.023
vt 124.62 -126.088
f 99/99/41 92/100/41 93/101/41

vt -5.96154 -2.27086
vn -0.362915 0.150324 -0.919617
vt 57.1035 -167.832
vt 91.0143 -151.272
f 99/102/42 91/103/42 92/104/42

vt 5.96154 2.27086
vn 0.362915 -0.150324 -0.919617
vt 32.6922 -173.488
vt 69.0266 -163.29
f 99/105/43 90/106/43 91/107/43

vt -6.3794 -2.02534e-013
vn -0.392817 2.39833e-016 -0.919617
vt -6.3794 -177.165
vt 31.205 -173.761
f 99/108/44 89/109/44 90/110/44

vt 6.3794 -1.98696e-013
vn 0.392817 -1.7131e-017 -0.919617
vt -31.205 -173.761
vt 6.3794 -177.165
f 99/111/45 88/112/45 89/113/45

vt -5.96154 2.27086
vn -0.362915 -0.150324 -0.919617
vt -69.0266 -163.29
vt -32.6922 -173.488
f 99/114/46 87/115/46 88/116/46

vt 5.96154 -2.27086
vn 0.362915 0.150324 -0.919617
vt -91.0143 -151.272
vt -57.1035 -167.832
f 99/117/47 86/118/47 87/119/47

vt -4.6957 4.31824
vn -0.277763 -0.277763 -0.919617
vt -124.62 -126.088
vt -94.6505 -149.023
f 99/120/48 85/121/48 86/122/48

vt 4.6957 -4.31824
vn 0.277763 0.277763 -0.919617
vt -140.589 -106.778
vt -115.228 -134.725
f 99/123/49 84/124/49 85/125/49

vt -164.155 -66.9422
vt -145.616 -99.8128
f 99/81/35 83/126/35 84/127/35

vt 2.61991 -5.8166
vn 0.150324 0.362915 -0.919617
vt -171.247 -42.9087
vt -158.916 -78.5754
f 99/128/50 82/129/50 83/130/50

vt -2.31609e-013 6.3794
vn -2.39833e-016 -0.392817 -0.919617
vt -177.165 6.3794
vt -173.761 -31.205
f 99/131/51 81/132/51 82/133/51

vt -2.27222e-013 -6.3794
vn 8.56548e-018 0.392817 -0.919617
vt -173.761 31.205
vt -177.165 -6.3794
f 99/134/52 80/135/52 81/136/52

vt -158.916 78.5754
vt -171.247 42.9087
f 99/93/39 79/137/39 80/138/39

vt -145.616 99.8128
vt -164.155 66.9422
f 99/90/38 78/139/38 79/140/38

vt -115.228 134.725
vt -140.589 106.778
f 99/99/41 77/141/41 78/142/41

vt -94.6505 149.023
vt -124.62 126.088
f 99/96/40 76/143/40 77/144/40

vt -57.1035 167.832
vt -91.0143 151.272
f 99/105/43 75/145/43 76/146/43

vt -32.6922 173.488
vt -69.0266 163.29
f 99/102/42 74/147/42 75/148/42

vt 6.3794 -1.98952e-013
vn 0.392817 0 -0.919617
vt 6.3794 177.165
vt -31.205 173.761
f 99/149/53 73/150/53 74/151/53

vt -6.3794 -1.98824e-013
vn -0.392817 -8.56548e-018 -0.919617
vt 31.205 173.761
vt -6.3794 177.165
f 99/152/54 72/153/54 73/154/54

vt 69.0266 163.29
vt 32.6922 173.488
f 99/117/47 71/155/47 72/156/47

vt 91.0143 151.272
vt 57.1035 167.832
f 99/114/46 70/157/46 71/158/46

vt 124.62 126.088
vt 94.6505 149.023
f 99/123/49 69/159/49 70/160/49

vt 140.589 106.778
vt 115.228 134.725
f 99/120/48 67/161/48 69/162/48

vt 164.155 66.9422
vt 145.616 99.8128
f 99/128/50 68/163/50 67/164/50

vn -0.881921 0.471397 -0
v -5.54328 2.2961 0.75
f 2/1/55 65/2/55 100/3/55 3/4/55 

vn -0.95694 0.290285 -0
v -5.88471 1.17054 0.75
f 65/1/56 63/2/56 101/3/56 100/4/56 

vn -0.995185 0.0980171 -0
v -6 -7.21911e-016 0.75
f 63/1/57 61/2/57 102/3/57 101/4/57 

vn -0.995185 -0.0980171 -0
v -5.88471 -1.17054 0.75
f 61/1/58 59/2/58 103/3/58 102/4/58 

vn -0.95694 -0.290285 -0
v -5.54328 -2.2961 0.75
f 59/1/59 57/2/59 104/3/59 103/4/59 

vn -0.881921 -0.471397 -0
v -4.98882 -3.33342 0.75
f 57/1/60 55/2/60 105/3/60 104/4/60 

vn -0.77301 -0.634393 -0
v -4.24264 -4.24264 0.75
f 55/1/61 53/2/61 106/3/61 105/4/61 

vn -0.634393 -0.77301 -0
v -3.33342 -4.98882 0.75
f 53/1/62 51/2/62 107/3/62 106/4/62 

vn -0.471397 -0.881921 -0
v -2.2961 -5.54328 0.75
f 51/1/63 49/2/63 108/3/63 107/4/63 

vn -0.290285 -0.95694 -0
v -1.17054 -5.88471 0.75
f 49/1/64 47/2/64 109/3/64 108/4/64 

vn -0.0980171 -0.995185 -0
v -2.16573e-015 -6 0.75
f 47/1/65 45/2/65 110/3/65 109/4/65 

vn 0.0980171 -0.995185 -0
v 1.17054 -5.88471 0.75
f 45/3/66 43/4/66 111/1/66 110/2/66 

vn 0.290285 -0.95694 -0
v 2.2961 -5.54328 0.75
f 43/3/67 41/4/67 112/1/67 111/2/67 

vn 0.471397 -0.881921 -0
v 3.33342 -4.98882 0.75
f 41/3/68 39/4/68 113/1/68 112/2/68 

vn 0.634393 -0.77301 -0
v 4.24264 -4.24264 0.75
f 39/3/69 37/4/69 114/1/69 113/2/69 

vn 0.77301 -0.634393 -0
v 4.98882 -3.33342 0.75
f 37/3/70 35/4/70 115/1/70 114/2/70 

vn 0.881921 -0.471397 -0
v 5.54328 -2.2961 0.75
f 35/3/71 33/4/71 116/1/71 115/2/71 

vn 0.95694 -0.290285 -0
v 5.88471 -1.17054 0.75
f 33/3/72 31/4/72 117/1/72 116/2/72 

vn 0.995185 -0.0980171 -0
v 6 -7.21911e-016 0.75
f 31/3/73 29/4/73 118/1/73 117/2/73 

vn 0.995185 0.0980171 -0
v 5.88471 1.17054 0.75
f 29/3/74 27/4/74 119/1/74 118/2/74 

vn 0.95694 0.290285 -0
v 5.54328 2.2961 0.75
f 27/3/75 25/4/75 120/1/75 119/2/75 

vn 0.881921 0.471397 -0
v 4.98882 3.33342 0.75
f 25/3/76 23/4/76 121/1/76 120/2/76 

vn 0.77301 0.634393 -0
v 4.24264 4.24264 0.75
f 23/3/77 21/4/77 122/1/77 121/2/77 

vn 0.634393 0.77301 -0
v 3.33342 4.98882 0.75
f 21/3/78 19/4/78 123/1/78 122/2/78 

vn 0.471397 0.881921 -0
v 2.2961 5.54328 0.75
f 19/3/79 17/4/79 124/1/79 123/2/79 

vn 0.290285 0.95694 -0
v 1.17054 5.88471 0.75
f 17/3/80 15/4/80 125/1/80 124/2/80 

vn 0.0980171 0.995185 -0
v -2.16573e-015 6 0.75
f 15/3/81 13/4/81 126/1/81 125/2/81 

vn -0.0980171 0.995185 -0
v -1.17054 5.88471 0.75
f 13/1/82 11/2/82 127/3/82 126/4/82 

vn -0.290285 0.95694 -0
v -2.2961 5.54328 0.75
f 11/1/83 9/2/83 128/3/83 127/4/83 

vn -0.471397 0.881921 -0
v -3.33342 4.98882 0.75
f 9/1/84 7/2/84 129/3/84 128/4/84 

vn -0.634393 0.77301 -0
f 7/1/85 1/2/85 4/3/85 129/4/85 

vn 7.66986e-017 -9.34575e-017 1
v -3.18198 3.18198 0.75
v -2.50007 3.74161 0.75
f 4/23/86 130/24/86 131/22/86 129/21/86 

vn 9.34575e-017 -7.66986e-017 1
v -3.74161 2.50007 0.75
f 3/25/87 132/26/87 130/24/87 4/23/87 

vn 1.06625e-016 -5.69922e-017 1
v -4.15746 1.72208 0.75
f 100/27/88 133/28/88 132/26/88 3/25/88 

vn 1.15695e-016 -3.50956e-017 1
v -4.41353 0.877906 0.75
f 101/29/89 134/30/89 133/28/89 100/27/89 

vt -236.22 -2.80718e-014
vn 1.20319e-016 -1.18503e-017 1
v -4.5 -2.88765e-015 0.75
vt -177.165 -1.13337e-013
f 102/165/90 135/166/90 134/30/90 101/29/90 

vn 1.20319e-016 1.18503e-017 1
v -4.41353 -0.877906 0.75
vt -177.165 -1.14037e-013
vt -236.22 -2.87716e-014
f 103/33/91 136/34/91 135/167/91 102/168/91 

vn 1.15695e-016 3.50956e-017 1
v -4.15746 -1.72208 0.75
f 104/35/92 137/36/92 136/34/92 103/33/92 

vn 1.06625e-016 5.69922e-017 1
v -3.74161 -2.50007 0.75
f 105/37/93 138/38/93 137/36/93 104/35/93 

vn 2.80363e-016 3.95304e-017 1
v -3.18198 -3.18198 0.75
f 106/39/94 139/40/94 138/38/94 105/37/94 

vn 2.30096e-016 2.80373e-016 1
v -2.50007 -3.74161 0.75
f 107/41/95 140/42/95 139/40/95 106/39/95 

vn -1.59253e-017 2.82688e-016 1
v -1.72208 -4.15746 0.75
f 108/43/96 141/44/96 140/42/96 107/41/96 

vn 3.50956e-017 1.15695e-016 1
v -0.877906 -4.41353 0.75
f 109/45/97 142/46/97 141/44/97 108/43/97 

vt -8.5615e-014 -236.22
vn 1.18503e-017 1.20319e-016 1
v -7.94103e-015 -4.5 0.75
vt -3.12989e-013 -177.165
f 110/169/98 143/170/98 142/46/98 109/45/98 

vn -1.18503e-017 1.20319e-016 1
v 0.877906 -4.41353 0.75
vt -3.12289e-013 -177.165
vt -8.49152e-014 -236.22
f 111/49/99 144/50/99 143/171/99 110/172/99 

vn -3.50956e-017 1.15695e-016 1
v 1.72208 -4.15746 0.75
f 112/51/100 145/52/100 144/50/100 111/49/100 

vn -5.69922e-017 1.06625e-016 1
v 2.50007 -3.74161 0.75
f 113/53/101 146/54/101 145/52/101 112/51/101 

vn -7.66986e-017 9.34575e-017 1
v 3.18198 -3.18198 0.75
f 114/55/102 147/56/102 146/54/102 113/53/102 

vn -9.34575e-017 7.66986e-017 1
v 3.74161 -2.50007 0.75
f 115/57/103 148/58/103 147/56/103 114/55/103 

vn -1.06625e-016 5.69922e-017 1
v 4.15746 -1.72208 0.75
f 116/59/104 149/60/104 148/58/104 115/57/104 

vn -1.15695e-016 3.50956e-017 1
v 4.41353 -0.877906 0.75
f 117/61/105 150/62/105 149/60/105 116/59/105 

vt 236.22 -2.87716e-014
vn -1.20319e-016 1.18503e-017 1
v 4.5 -7.21911e-016 0.75
vt 177.165 -2.87716e-014
f 118/173/106 151/174/106 150/62/106 117/61/106 

vn -1.20319e-016 -1.18503e-017 1
v 4.41353 0.877906 0.75
vt 177.165 -2.80718e-014
vt 236.22 -2.80718e-014
f 119/65/107 152/66/107 151/175/107 118/176/107 

vn -1.15695e-016 -3.50956e-017 1
v 4.15746 1.72208 0.75
f 120/67/108 153/68/108 152/66/108 119/65/108 

vn -1.06625e-016 -5.69922e-017 1
v 3.74161 2.50007 0.75
f 121/8/109 154/7/109 153/68/109 120/67/109 

vn -4.72e-021 -9.52827e-017 1
v 3.18198 3.18198 0.75
f 122/5/110 155/6/110 154/7/110 121/8/110 

vn 0 0 1
v 2.50007 3.74161 0.75
f 123/9/111 156/10/111 155/6/111 122/5/111 

vn -9.3451e-017 -1.85934e-017 1
v 1.72208 4.15746 0.75
f 124/11/112 157/12/112 156/10/112 123/9/112 

vn -3.50956e-017 -1.15695e-016 1
v 0.877906 4.41353 0.75
f 125/13/113 158/14/113 157/12/113 124/11/113 

vt -8.49152e-014 236.22
vn -1.18503e-017 -1.20319e-016 1
v -1.01068e-014 4.5 0.75
vt -3.97554e-013 177.165
f 126/177/114 159/178/114 158/14/114 125/13/114 

vn 1.18503e-017 -1.20319e-016 1
v -0.877906 4.41353 0.75
vt -3.98254e-013 177.165
vt -8.5615e-014 236.22
f 127/17/115 160/18/115 159/179/115 126/180/115 

vn 3.50956e-017 -1.15695e-016 1
v -1.72208 4.15746 0.75
f 128/19/116 161/20/116 160/18/116 127/17/116 

vn 5.69922e-017 -1.06625e-016 1
f 129/21/117 131/22/117 161/20/117 128/19/117 

vn 0.471397 -0.881921 6.81542e-016
v -2.50007 3.74161 0.0375
v -1.72208 4.15746 0.4125
f 161/75/118 131/76/118 162/77/118 163/78/118 

vn 0.634393 -0.77301 1.39314e-015
v -3.18198 3.18198 0.4125
f 131/75/119 130/76/119 164/79/119 162/80/119 

vn 0.77301 -0.634393 -8.13204e-015
v -3.74161 2.50007 0.0375
f 130/75/120 132/76/120 165/77/120 164/78/120 

vn 0.881921 -0.471397 -1.02515e-014
v -4.15746 1.72208 0.4125
f 132/75/121 133/76/121 166/79/121 165/80/121 

vn 0.95694 -0.290285 -1.32165e-014
v -4.41353 0.877906 0.0375
f 133/75/122 134/76/122 167/77/122 166/78/122 

vn 0.995185 -0.0980171 -1.08715e-014
v -4.5 -7.21911e-016 0.4125
f 134/75/123 135/76/123 168/79/123 167/80/123 

vn 0.995185 0.0980171 2.53544e-015
v -4.41353 -0.877906 0.0375
f 135/75/124 136/76/124 169/77/124 168/78/124 

vn 0.95694 0.290285 1.57028e-015
v -4.15746 -1.72208 0.4125
f 136/75/125 137/76/125 170/79/125 169/80/125 

vn 0.881921 0.471397 6.81542e-016
v -3.74161 -2.50007 0.0375
f 137/75/126 138/76/126 171/77/126 170/78/126 

vn 0.77301 0.634393 -2.13831e-015
v -3.18198 -3.18198 0.4125
f 138/75/127 139/76/127 172/79/127 171/80/127 

vn 0.634393 0.77301 -9.0392e-015
v -2.50007 -3.74161 0.0375
f 139/75/128 140/76/128 173/77/128 172/78/128 

vn 0.471397 0.881921 -6.61664e-015
v -1.72208 -4.15746 0.4125
f 140/75/129 141/76/129 174/79/129 173/80/129 

vn 0.290285 0.95694 -4.4753e-015
v -0.877906 -4.41353 0.0375
f 141/75/130 142/76/130 175/77/130 174/78/130 

vn 0.0980171 0.995185 -6.4361e-015
v -2.16573e-015 -4.5 0.4125
f 142/75/131 143/76/131 176/79/131 175/80/131 

vn -0.0980171 0.995185 -6.81988e-015
v 0.877906 -4.41353 0.0375
f 143/69/132 144/70/132 177/71/132 176/72/132 

vn -0.290285 0.95694 -5.31279e-015
v 1.72208 -4.15746 0.4125
f 144/69/133 145/70/133 178/73/133 177/74/133 

vn -0.471397 0.881921 -5.79311e-015
v 2.50007 -3.74161 0.0375
f 145/69/134 146/70/134 179/71/134 178/72/134 

vn -0.634393 0.77301 -6.31772e-015
v 3.18198 -3.18198 0.4125
f 146/69/135 147/70/135 180/73/135 179/74/135 

vn -0.77301 0.634393 -1.16635e-015
v 3.74161 -2.50007 0.0375
f 147/69/136 148/70/136 181/71/136 180/72/136 

vn -0.881921 0.471397 3.63489e-015
v 4.15746 -1.72208 0.4125
f 148/69/137 149/70/137 182/73/137 181/74/137 

vn -0.95694 0.290285 9.60489e-015
v 4.41353 -0.877906 0.0375
f 149/69/138 150/70/138 183/71/138 182/72/138 

vn -0.995185 0.0980171 3.96987e-015
v 4.5 5.77529e-015 0.4125
f 150/69/139 151/70/139 184/73/139 183/74/139 

vn -0.995185 -0.0980171 -3.47285e-015
v 4.41353 0.877906 0.0375
f 151/69/140 152/70/140 185/71/140 184/72/140 

vn -0.95694 -0.290285 -3.21908e-015
v 4.15746 1.72208 0.4125
f 152/69/141 153/70/141 186/73/141 185/74/141 

vn -0.881921 -0.471397 4.00406e-015
v 3.74161 2.50007 0.0375
f 153/69/142 154/70/142 187/71/142 186/72/142 

vn -0.77301 -0.634393 8.16444e-015
v 3.18198 3.18198 0.4125
f 154/69/143 155/70/143 188/73/143 187/74/143 

vn -0.634393 -0.77301 -6.47971e-017
v 2.50007 3.74161 0.0375
f 155/69/144 156/70/144 189/71/144 188/72/144 

vn -0.471397 -0.881921 -3.4929e-015
v 1.72208 4.15746 0.4125
f 156/69/145 157/70/145 190/73/145 189/74/145 

vn -0.290285 -0.95694 -9.55255e-015
v 0.877906 4.41353 0.0375
f 157/69/146 158/70/146 191/71/146 190/72/146 

vn -0.0980171 -0.995185 -1.16265e-014
v -7.94103e-015 4.5 0.4125
f 158/69/147 159/70/147 192/73/147 191/74/147 

vn 0.0980171 -0.995185 -9.43081e-015
v -0.877906 4.41353 0.0375
f 159/75/148 160/76/148 193/77/148 192/78/148 

vn 0.290285 -0.95694 -6.77838e-015
f 160/75/149 161/76/149 163/79/149 193/80/149 

vn 0.362915 0.150324 0.919617
v -1.01068e-014 -7.21911e-016 0.4125
f 163/148/150 194/102/150 193/147/150

vn -0.362915 -0.150324 0.919617
f 162/146/151 194/105/151 163/145/151

vn 0.277763 0.277763 0.919617
f 164/144/152 194/96/152 162/143/152

vn -0.277763 -0.277763 0.919617
f 165/142/153 194/99/153 164/141/153

vn 0.150324 0.362915 0.919617
f 166/140/154 194/90/154 165/139/154

vn -0.150324 -0.362915 0.919617
f 167/138/155 194/93/155 166/137/155

vn 7.70893e-016 0.392817 0.919617
vt -4.11518e-013 -6.3794
f 168/136/156 194/181/156 167/135/156

vn 7.70893e-016 -0.392817 0.919617
vt -4.11518e-013 6.3794
f 169/133/157 194/182/157 168/132/157

vn -0.150324 0.362915 0.919617
f 170/130/158 194/128/158 169/129/158

vn 0.150324 -0.362915 0.919617
f 171/127/159 194/81/159 170/126/159

vn -0.277763 0.277763 0.919617
f 172/125/160 194/123/160 171/124/160

vn 0.277763 -0.277763 0.919617
f 173/122/161 194/120/161 172/121/161

vn -0.362915 0.150324 0.919617
f 174/119/162 194/117/162 173/118/162

vn 0.362915 -0.150324 0.919617
f 175/116/163 194/114/163 174/115/163

vn -0.392817 1.4133e-015 0.919617
vt 6.3794 -4.9529e-014
f 176/113/164 194/183/164 175/112/164

vn 0.392817 2.79235e-015 0.919617
vt -6.3794 -7.01246e-014
f 177/110/165 194/184/165 176/109/165

f 178/107/151 194/105/151 177/106/151

f 179/104/150 194/102/150 178/103/150

f 180/101/153 194/99/153 179/100/153

f 181/98/152 194/96/152 180/97/152

f 182/95/155 194/93/155 181/94/155

f 183/92/154 194/90/154 182/91/154

vn -2.03858e-015 -0.392817 0.919617
vt -3.61903e-013 6.3794
f 184/89/166 194/185/166 183/88/166

vn -3.19492e-015 0.392817 0.919617
vt -3.41483e-013 -6.3794
f 185/86/167 194/186/167 184/85/167

f 186/83/159 194/81/159 185/82/159

f 187/164/158 194/128/158 186/163/158

f 188/162/161 194/120/161 187/161/161

f 189/160/160 194/123/160 188/159/160

f 190/158/163 194/114/163 189/157/163

f 191/156/162 194/117/162 190/155/162

vn 0.392817 -1.40474e-015 0.919617
vt -6.3794 -7.44233e-015
f 192/154/168 194/187/168 191/153/168

vn -0.392817 -1.01929e-015 0.919617
vt 6.3794 -1.31989e-014
f 193/151/169 194/188/169 192/150/169

