# Alias OBJ Model File
# Exported from SketchUp, (c) 2000-2012 Trimble Navigation Limited
# File units = meters

mtllib skateboard_edge.mtl

g Mesh1 Group1 Model

usemtl FrontColor
v 0.765367 1 7.84776
vt 93.8543 0
vn 0.55557 0 0.83147
v 1.41421 1 7.41421
vt 124.577 0
v 1.41421 1.5 7.41421
vt 124.577 19.685
v 0.765367 1.5 7.84776
vt 93.8543 19.685
f 1/1/1 2/2/1 3/3/1 4/4/1 

vn 0.83147 0 0.55557
v 1.84776 1 6.76537
v 1.84776 1.5 6.76537
f 2/1/2 5/2/2 6/3/2 3/4/2 

vt 77.2272 0
vn 0.980785 0 0.19509
v 2 1 6
vt 107.95 0
v 2 1.5 6
vt 107.95 19.685
vt 77.2272 19.685
f 5/5/3 7/6/3 8/7/3 6/8/3 

vt 78.7402 0
vn 1 0 -0
v 2 1 -6
vt 551.181 0
v 2 1.5 -6
vt 551.181 19.685
vt 78.7402 19.685
f 7/9/4 9/10/4 10/11/4 8/12/4 

vt 509.867 5.32732e-029
vn 0.980785 -2.03345e-031 -0.19509
v 1.84776 1 -6.76537
vt 540.59 5.32732e-029
v 1.84776 1.5 -6.76537
vt 540.59 19.685
vt 509.867 19.685
f 9/13/5 11/14/5 12/15/5 10/16/5 

vt 399.183 0
vn 0.83147 0 -0.55557
v 1.41421 1 -7.41421
vt 429.906 0
v 1.41421 1.5 -7.41421
vt 429.906 19.685
vt 399.183 19.685
f 11/17/6 13/18/6 14/19/6 12/20/6 

vt 225.388 0
vn 0.55557 0 -0.83147
v 0.765367 1 -7.84776
vt 256.111 0
v 0.765367 1.5 -7.84776
vt 256.111 19.685
vt 225.388 19.685
f 13/21/7 15/22/7 16/23/7 14/24/7 

vt 14.9415 0
vn 0.19509 0 -0.980785
v 3.60956e-016 1 -8
vt 45.6644 0
v 3.60956e-016 1.5 -8
vt 45.6644 19.685
vt 14.9415 19.685
f 15/25/8 17/26/8 18/27/8 16/28/8 

vt -200.119 0
vn -0.19509 0 -0.980785
v -0.765367 1 -7.84776
vt -169.396 0
v -0.765367 1.5 -7.84776
vt -169.396 19.685
vt -200.119 19.685
f 17/29/9 19/30/9 20/31/9 18/32/9 

vt -387.051 0
vn -0.55557 0 -0.83147
v -1.41421 1 -7.41421
vt -356.328 0
v -1.41421 1.5 -7.41421
vt -356.328 19.685
vt -387.051 19.685
f 19/33/10 21/34/10 22/35/10 20/36/10 

vt -517.397 0
vn -0.83147 0 -0.55557
v -1.84776 1 -6.76537
vt -486.675 0
v -1.84776 1.5 -6.76537
vt -486.675 19.685
vt -517.397 19.685
f 21/37/11 23/38/11 24/39/11 22/40/11 

vt -571.313 2.18657e-029
vn -0.980785 -2.03345e-031 -0.19509
v -2 1 -6
vt -540.59 2.18657e-029
v -2 1.5 -6
vt -540.59 19.685
vt -571.313 19.685
f 23/41/12 25/42/12 26/43/12 24/44/12 

vt -551.181 0
vn -1 0 -0
v -2 1 6
vt -78.7402 0
v -2 1.5 6
vt -78.7402 19.685
vt -551.181 19.685
f 25/45/13 27/46/13 28/47/13 26/48/13 

vt -77.2272 0
vn -0.980785 0 0.19509
v -1.84776 1 6.76537
vt -46.5043 0
v -1.84776 1.5 6.76537
vt -46.5043 19.685
vt -77.2272 19.685
f 27/49/14 29/50/14 30/51/14 28/52/14 

vt -37.0858 0
vn -0.83147 0 0.55557
v -1.41421 1 7.41421
vt -6.36292 0
v -1.41421 1.5 7.41421
vt -6.36292 19.685
vt -37.0858 19.685
f 29/53/15 31/54/15 32/55/15 30/56/15 

vt 6.36292 0
vn -0.55557 0 0.83147
v -0.765367 1 7.84776
vt 37.0858 0
v -0.765367 1.5 7.84776
vt 37.0858 19.685
vt 6.36292 19.685
f 31/57/16 33/58/16 34/59/16 32/60/16 

vt 46.5043 0
vn -0.19509 0 0.980785
v 0 1 8
v 0 1.5 8
vt 46.5043 19.685
f 33/61/17 35/5/17 36/8/17 34/62/17 

vn 0.19509 0 0.980785
f 35/5/18 1/6/18 4/7/18 36/8/18 

vn 0 1 -0
vt 108.873 5.99374
v 0.68883 1.5 7.66298
vt 105.859 13.2684
v 0 1.5 7.8
vt 78.7402 7.87402
f 36/9/19 4/63/19 37/64/19 38/65/19 

v 1.27279 1.5 7.27279
vt 128.85 28.6302
vt 134.418 23.0625
f 39/66/19 37/64/19 4/63/19 3/67/19 

vt 151.487 48.6076
v 1.66298 1.5 6.68883
vt 144.212 51.6209
f 3/67/19 6/68/19 40/69/19 39/66/19 

v 1.8 1.5 6
vt 149.606 78.7402
vt 157.48 78.7402
f 41/70/19 40/69/19 6/68/19 8/71/19 

vt 157.48 551.181
f 8/71/19 10/72/19 41/70/19

v 1.8 1.5 -6
vt 149.606 551.181
f 42/73/19 41/70/19 10/72/19

vt 151.487 581.314
v 1.66298 1.5 -6.68883
vt 144.212 578.3
f 10/72/19 12/74/19 43/75/19 42/73/19 

v 1.27279 1.5 -7.27279
vt 128.85 601.291
vt 134.418 606.859
f 44/76/19 43/75/19 12/74/19 14/77/19 

vt 108.873 623.928
v 0.68883 1.5 -7.66298
vt 105.859 616.653
f 14/77/19 16/78/19 45/79/19 44/76/19 

v 3.60956e-016 1.5 -7.8
vt 78.7402 622.047
vt 78.7402 629.921
f 46/80/19 45/79/19 16/78/19 18/81/19 

vt 48.6076 623.928
v -0.68883 1.5 -7.66298
vt 51.6209 616.653
f 18/81/19 20/82/19 47/83/19 46/80/19 

v -1.27279 1.5 -7.27279
vt 28.6302 601.291
vt 23.0625 606.859
f 48/84/19 47/83/19 20/82/19 22/85/19 

vt 5.99374 581.314
v -1.66298 1.5 -6.68883
vt 13.2684 578.3
f 22/85/19 24/86/19 49/87/19 48/84/19 

v -1.8 1.5 -6
vt 7.87402 551.181
vt 0 551.181
f 50/88/19 49/87/19 24/86/19 26/89/19 

vt 0 78.7402
f 26/89/19 28/90/19 50/88/19

v -1.8 1.5 6
vt 7.87402 78.7402
f 51/91/19 50/88/19 28/90/19

vt 5.99374 48.6076
v -1.66298 1.5 6.68883
vt 13.2684 51.6209
f 28/90/19 30/92/19 52/93/19 51/91/19 

v -1.27279 1.5 7.27279
vt 28.6302 28.6302
vt 23.0625 23.0625
f 53/94/19 52/93/19 30/92/19 32/95/19 

vt 48.6076 5.99374
v -0.68883 1.5 7.66298
vt 51.6209 13.2684
f 32/95/19 34/96/19 54/97/19 53/94/19 

f 38/65/19 54/97/19 34/96/19 36/9/19 

