# Alias OBJ Model File
# Exported from SketchUp, (c) 2000-2012 Trimble Navigation Limited
# File units = meters

mtllib tunnel.mtl

g Mesh1 Model

usemtl FrontColor
v 40.8679 64.928 -6.93035e-014
vt 2.72848e-012 2193.21
vn 0.980785 0.19509 -0
v 44 49.1819 -6.93035e-014
vt 2.72848e-012 1561.14
v 44 49.1819 -12
vt 472.441 1561.14
v 40.8679 64.928 -12
vt 472.441 2193.21
f 1/1/1 2/2/1 3/3/1 4/4/1 

v 29.5641 60.2459 -6.93035e-014
vt 1163.94 2371.88
vn 0 0 1
v 32 48 -6.93035e-014
vt 1259.84 1889.76
vt 1732.28 1936.3
vt 1608.97 2556.22
f 5/5/2 6/6/2 2/7/2 1/8/2 

v 29.5641 60.2459 -2048
vt -80629.9 2099.24
vn -0.980785 -0.19509 -4.92489e-017
v 32 48 -2048
vt -80629.9 1607.67
vt -2.79175e-012 1607.67
vt -2.78693e-012 2099.24
f 7/9/3 8/10/3 6/11/3 5/12/3 

vt -80629.9 1889.76
vn -1 7.47376e-032 -5.63993e-017
v 32 0 -2048
vt -80629.9 9.41577e-029
v 32 0 -6.93035e-014
vt -2.79954e-012 9.41577e-029
vt -2.79954e-012 1889.76
f 8/13/4 9/14/4 10/15/4 6/16/4 

v 44 0 -6.93035e-014
vt 1732.28 0
vt 1259.84 0
f 11/17/2 2/7/2 6/6/2 10/18/2 

vt 2.72848e-012 1936.3
vn 1 -1.40913e-015 -0
vt 2.72848e-012 2.44101e-012
v 44 0 -12
vt 472.441 2.44101e-012
vt 472.441 1936.3
f 2/19/5 11/20/5 12/21/5 3/22/5 

v 22.6274 70.6274 -2048
vt -80629.9 1817.06
vn -0.83147 -0.55557 -3.91119e-017
vt -80629.9 1325.5
vt -2.78324e-012 1325.5
v 22.6274 70.6274 -6.93035e-014
vt -2.77039e-012 1817.06
f 13/23/6 7/24/6 5/25/6 14/26/6 

vt 890.843 2780.61
v 31.2789 79.2789 -6.93035e-014
vt 1231.45 3121.22
f 14/27/2 5/5/2 1/8/2 15/28/2 

vt 2.72848e-012 1911.04
vn 0.83147 0.55557 -0
vt 2.72848e-012 1231.52
vt 472.441 1231.52
v 31.2789 79.2789 -12
vt 472.441 1911.04
f 15/29/7 1/30/7 4/31/7 16/32/7 

v 16.928 88.8679 -6.93035e-014
vt 2.72848e-012 1389.65
vn 0.55557 0.83147 -0
vt 2.72848e-012 710.139
vt 472.441 710.139
v 16.928 88.8679 -12
vt 472.441 1389.65
f 17/33/8 15/34/8 16/35/8 18/36/8 

v 12.2459 77.5641 -6.93035e-014
vt 482.121 3053.71
vt 666.458 3498.74
f 19/37/2 14/27/2 15/28/2 17/38/2 

v 12.2459 77.5641 -2048
vt -80629.9 1295.68
vn -0.55557 -0.83147 -4.93364e-017
vt -80629.9 804.113
vt -2.80759e-012 804.113
vt -2.7713e-012 1295.68
f 20/39/9 13/40/9 14/41/9 19/42/9 

v 1.15506e-013 80 -2048
vt -80629.9 614.458
vn -0.19509 -0.980785 -2.59335e-017
vt -80629.9 122.892
vt -2.79257e-012 122.892
v -2.31012e-014 80 -6.93035e-014
vt -2.72848e-012 614.458
f 21/43/10 20/44/10 19/45/10 22/46/10 

vt -9.09495e-013 3149.61
v -4.62023e-014 92.2351 -6.93035e-014
vt -1.81899e-012 3631.3
f 22/47/2 19/37/2 17/38/2 23/48/2 

vt 2.72848e-012 708.432
vn 0.19509 0.980785 -0
vt 2.72848e-012 28.9172
vt 472.441 28.9172
v -4.62023e-014 92.2351 -12
vt 472.441 708.432
f 23/49/11 17/50/11 18/51/11 24/52/11 

v -16.928 88.8679 -6.93035e-014
vt -2.72848e-012 28.9172
vn -0.19509 0.980785 -0
vt -2.72848e-012 708.432
vt -472.441 708.432
v -16.928 88.8679 -12
vt -472.441 28.9172
f 25/53/12 23/54/12 24/55/12 26/56/12 

v -12.2459 77.5641 -6.93035e-014
vt -482.121 3053.71
vt -666.458 3498.74
f 27/57/2 22/47/2 23/48/2 25/58/2 

v -12.2459 77.5641 -2048
vt 80629.9 122.892
vn 0.19509 -0.980785 -2.82809e-018
vt 80629.9 614.458
vt 2.72848e-012 614.458
vt 2.73547e-012 122.892
f 28/59/13 21/60/13 22/61/13 27/62/13 

v -22.6274 70.6274 -2048
vt 80629.9 804.113
vn 0.55557 -0.83147 3.98741e-018
vt 80629.9 1295.68
vt 2.72502e-012 1295.68
v -22.6274 70.6274 -6.93035e-014
vt 2.72209e-012 804.113
f 29/63/14 28/64/14 27/65/14 30/66/14 

vt -890.843 2780.61
v -31.2789 79.2789 -6.93035e-014
vt -1231.45 3121.22
f 30/67/2 27/57/2 25/58/2 31/68/2 

vt -2.72848e-012 710.139
vn -0.55557 0.83147 -0
vt -2.72848e-012 1389.65
vt -472.441 1389.65
v -31.2789 79.2789 -12
vt -472.441 710.139
f 31/69/15 25/70/15 26/71/15 32/72/15 

v -40.8679 64.928 -6.93035e-014
vt -2.72848e-012 1231.52
vn -0.83147 0.55557 -0
vt -2.72848e-012 1911.04
vt -472.441 1911.04
v -40.8679 64.928 -12
vt -472.441 1231.52
f 33/73/16 31/74/16 32/75/16 34/76/16 

v -29.5641 60.2459 -6.93035e-014
vt -1163.94 2371.88
vt -1608.97 2556.22
f 35/77/2 30/67/2 31/68/2 33/78/2 

v -29.5641 60.2459 -2048
vt 80629.9 1325.5
vn 0.83147 -0.55557 3.58093e-017
vt 80629.9 1817.06
vt 2.69012e-012 1817.06
vt 2.67836e-012 1325.5
f 36/79/17 29/80/17 30/81/17 35/82/17 

v -32 48 -2048
vt 80629.9 1607.67
vn 0.980785 -0.19509 4.4817e-017
vt 80629.9 2099.24
vt 2.6753e-012 2099.24
v -32 48 -6.93035e-014
vt 2.67092e-012 1607.67
f 37/83/18 36/84/18 35/85/18 38/86/18 

vt -1259.84 1889.76
v -44 49.1819 -6.93035e-014
vt -1732.28 1936.3
f 38/87/2 35/77/2 33/78/2 39/88/2 

vt -2.72848e-012 1561.14
vn -0.980785 0.19509 -0
vt -2.72848e-012 2193.21
vt -472.441 2193.21
v -44 49.1819 -12
vt -472.441 1561.14
f 39/89/19 33/90/19 34/91/19 40/92/19 

v -44 0 -6.93035e-014
vt -2.72848e-012 0
vn -1 0 -0
vt -2.72848e-012 1936.3
vt -472.441 1936.3
v -44 0 -12
vt -472.441 0
f 41/93/20 39/94/20 40/95/20 42/96/20 

v -32 0 -6.93035e-014
vt -1259.84 0
vt -1732.28 0
f 43/97/2 38/87/2 39/88/2 41/98/2 

v -32 0 -2048
vt 80629.9 4.11129e-030
vn 1 3.26334e-033 4.51195e-017
vt 80629.9 1889.76
vt 2.67164e-012 1889.76
vt 2.67164e-012 4.11129e-030
f 44/99/21 37/100/21 38/101/21 43/102/21 

