# Alias OBJ Model File
# Exported from SketchUp, (c) 2000-2012 Trimble Navigation Limited
# File units = meters

mtllib tunnel_mountain.mtl

g Mesh1 Model

usemtl FrontColor
v -62.4289 121.851 -76
vt -2920.21 4635.41
vn -0.0846933 0.859905 0.503378
v -124.858 115.703 -76
vt -5343.98 4161.18
vn -0.220463 0.709537 0.669293
v -16.928 88.8679 -12
vt -735.607 2091.48
f 1/1/1 2/2/2 3/3/2

vt -5369.61 4016.92
vn -0.0861703 0.874902 0.476572
vt -2950.99 4516.77
v -131.131 132.516 -108
vt -5836.8 5383.7
f 2/4/3 1/5/3 4/6/3

v -65.5655 138.327 -108
vt -3254.87 5876.22
vn -0.0782888 0.8832 0.462416
vt -5799.97 5388.34
vt -2922.82 4493.12
f 5/7/4 4/8/4 1/9/4

v -65.5655 153.697 -156
vt -4126.35 6871.53
vn -0.0841208 0.948993 0.30387
vt -6109.92 4226.66
vt -3622.17 4952.37
f 6/10/5 4/11/5 5/12/5

vt -6215.34 3950.98
vn -0.0937463 0.951822 0.29197
vt -4335.32 6670.42
v -131.131 147.24 -156
vt -6793.06 5841.34
f 4/13/6 6/14/6 7/15/6

vt -7916.05 2160.79
vn -0.0973811 0.988727 0.113734
vt -5955.27 3858.78
v -131.131 161.964 -284
vt -11193.6 6032.36
f 7/16/7 6/17/7 8/18/7

v -65.5655 169.067 -284
vt -9406.67 7550.65
vn -0.106951 0.987173 0.118536
vt -11323.2 5798.98
vt -6030.83 3760.53
f 9/19/8 8/20/8 6/21/8

vt -5890.85 4003.34
vn -0.0973247 0.988154 0.118654
v -3.13655 159.846 -156
vt -3990.51 5580.76
vt -9086.77 7946.37
f 6/22/9 10/23/9 9/24/9

vt -3717.31 4863.91
vn -0.0933901 0.948206 0.303618
vt -1923.68 7530.89
vt -4272.89 6768.83
f 5/25/10 10/26/10 6/27/10

vt -1699.15 7631.54
vn -0.0838057 0.945437 0.314842
vt -3588.18 5031.27
v -3.13655 143.861 -108
vt -1213.05 5699.98
f 10/28/11 5/29/11 11/30/11

vt -857.641 6290.01
vn -0.078899 0.890083 0.448918
vt -3278.37 5812.02
v 0 128 -76
vt -517.939 4919.97
f 11/31/12 5/32/12 12/33/12

vt -2967.79 4452.98
vn -0.0868909 0.882218 0.462754
vt -552.179 4967.11
vt -3321.66 5830.66
f 1/34/13 12/35/13 5/36/13

vt -519.348 5049.89
vn -0.0856613 0.869734 0.48603
vt -2939.87 4559.38
vn -0.125011 0.848325 0.514507
v -2.88765e-015 92.2351 -12
vt -82.0023 2196.79
f 12/37/14 1/38/15 13/39/15

vt -774.787 2193.21
vn -0.164008 0.824526 0.541534
vt -136.94 2427.5
vt -3219.6 4488.19
f 3/40/16 13/41/15 1/42/15

vt 519.348 5049.89
vn 0.0856613 0.869734 0.48603
vt 82.0023 2196.79
vn 0.125011 0.848325 0.514507
v 62.4289 121.851 -76
vt 2939.87 4559.38
f 12/43/17 13/44/18 14/45/18

v 16.928 88.8679 -12
vt 774.787 2193.21
vn 0.164008 0.824526 0.541534
vt 3219.6 4488.19
vt 136.94 2427.5
f 15/46/19 14/47/18 13/48/18

vt 2920.21 4635.41
vn 0.0846933 0.859905 0.503378
vt 735.607 2091.48
vn 0.220463 0.709537 0.669293
v 124.858 115.703 -76
vt 5343.98 4161.18
f 14/49/20 15/50/21 16/51/21

v 31.2789 79.2789 -12
vt 1317.83 2655.84
vn 0.341115 0.510515 0.789313
vt 5699.31 4323.53
vt 799.193 3094.88
f 17/52/22 16/53/21 15/54/21

vt 5567.53 4309.57
vn 0.208462 0.687207 0.69591
vt 1315.23 2335.62
vn 0.255385 0.456041 0.852529
v 244.917 79.2829 -76
vt 10095.5 2335.83
f 16/55/23 17/56/24 18/57/24

v 40.8679 64.928 -12
vt 1676.87 2508.76
vn 0.281834 0.188315 0.940801
vt 10095.5 3084.21
vt 1315.23 3084.05
f 19/58/25 18/59/24 17/60/24

vt 1676.73 2550.4
vn 0.294998 0.0586787 0.953694
v 44 49.1819 -12
vt 1794.53 1929.41
vt 10096 3116.53
f 19/61/26 20/62/26 18/63/26

v 355.565 20.1406 -76
vt 14306.9 526.584
vn 0.220035 0.411657 0.884377
vt 10079.6 3081.55
vt 1795.1 1781.18
f 21/64/27 18/65/27 20/66/27

vt 13735 -2090.06
vn 0.3555 0.665093 0.656713
v 373.429 42.1887 -108
vt 14953.3 -927.652
vt 9904.11 1028
f 21/67/28 22/68/28 18/69/28

vt 13889.4 -1807.17
vn 0.318976 0.687854 0.652005
v 464.407 1.93574e-027 -108
vt 18292.2 -2899.6
vt 15074.8 -611.282
f 21/70/29 23/71/29 22/72/29

vt 18602.6 -997.607
vn 0.325735 0.396909 0.858114
vt 14149.3 -133.709
v 380.106 -2.31012e-014 -76
vt 15052.6 -997.607
f 23/73/30 21/74/30 24/75/30

vt 15260.4 31.1274
vn 0.182378 0.222228 0.957786
vt 14311.2 844.399
v 44 -4.2306e-016 -12
vt 1790.08 31.1274
f 24/76/31 21/77/31 25/78/31

vt 1791.92 1936.3
vn 0.201213 0 0.979547
vt 1791.92 -1.66559e-014
vt 14314.4 792.935
f 20/79/32 25/80/32 21/81/32

v 528.407 0 -156
vt 20327.8 -5988.54
vn 0.366913 0.791228 0.489217
vt 14312.7 -3272.41
vt 17178.2 -5988.54
f 26/82/33 22/83/33 23/84/33

v 257.223 108.99 -156
vt 11558.9 -79.2312
vn 0.347603 0.864891 0.362127
vt 13550.8 -5318.64
vt 19261.2 -8627.62
f 27/85/34 22/86/34 26/87/34

vt 10120.6 -9355.49
vn 0.424708 0.882858 0.200464
vt 9876.73 -3755.51
v 257.223 98.0911 -108
vt 8167.77 -4669.18
f 22/88/35 27/89/35 28/90/35

vt 10985.3 -2619.2
vn 0.283666 0.93512 0.212331
v 131.131 147.24 -156
vt 8010.54 1630.73
vt 9472.45 -3830.2
f 27/91/36 29/92/36 28/93/36

vt 7573.21 -731.387
vn 0.288542 0.951195 0.109417
vt 9333.38 -5611.26
v 131.131 161.964 -284
vt 12285.2 1147.1
f 29/94/37 27/95/37 30/96/37

v 257.223 119.889 -284
vt 13337.9 -5126.89
vn 0.315497 0.945505 0.0805083
vt 12110.4 -39.5554
vt 8454.96 -6444.72
f 31/97/38 30/98/38 27/99/38

vt 8671.07 -6422.47
vn 0.286691 0.954569 0.0812801
v 656.407 -7.69423e-030 -284
vt 17806 -20822.1
vt 13519.4 -4982.51
f 27/100/39 32/101/39 31/102/39

vt 26179.8 -9013.23
vn 0.349409 0.869383 0.349409
vt 11503.6 -329.528
vt 19053.1 -9013.23
f 32/103/40 27/104/40 26/105/40

v 752.407 -7.69423e-030 -412
vt 30749.8 -13074.6
vn 0.281174 0.9362 0.21088
vt 15021 354.968
vt 24450.6 -13074.6
f 33/106/41 31/107/41 32/108/41

vt 11424.2 5538.67
vn 0.107013 0.987744 0.113621
v 65.5655 169.067 -284
vt 9545.08 7330.43
vt 7969.08 1824.69
f 30/109/42 34/110/42 29/111/42

v 65.5655 153.697 -156
vt 5890.85 4003.34
vn 0.0973247 0.988154 0.118654
vt 7886.66 2346.67
vt 9086.77 7946.37
f 35/112/43 29/113/43 34/114/43

vt 6793.06 5841.34
vn 0.0937463 0.951822 0.29197
vt 4335.32 6670.42
v 131.131 132.516 -108
vt 6215.34 3950.98
f 29/115/44 35/116/44 36/117/44

v 65.5655 138.327 -108
vt 3622.17 4952.37
vn 0.0841208 0.948993 0.30387
vt 6109.92 4226.66
vt 4126.35 6871.53
f 37/118/45 36/119/45 35/120/45

vt 3254.87 5876.22
vn 0.0782888 0.8832 0.462416
vt 2922.82 4493.12
vt 5799.97 5388.34
f 37/121/46 14/122/46 36/123/46

vt 2967.79 4452.98
vn 0.0868909 0.882218 0.462754
vt 3321.66 5830.66
vt 552.179 4967.11
f 14/124/47 37/125/47 12/126/47

v 3.13655 143.861 -108
vt 857.641 6290.01
vn 0.078899 0.890083 0.448918
vt 517.939 4919.97
vt 3278.37 5812.02
f 38/127/48 12/128/48 37/129/48

vt 123.486 6324.99
vn -1.13758e-014 0.895975 0.444105
vt -123.486 6324.99
vt -7.66435e-011 4918.88
f 38/130/49 11/131/49 12/132/49

vt -123.486 5823.67
vn -7.34939e-015 0.948775 0.315954
vt 123.486 5823.67
v 3.13655 159.846 -156
vt 123.486 7815.46
vt -123.486 7815.46
f 11/133/50 38/134/50 39/135/50 10/136/50 

vt 1213.05 5699.98
vn 0.0838057 0.945437 0.314842
vt 3588.18 5031.27
vt 1699.15 7631.54
f 38/137/51 37/138/51 39/139/51

vt 4272.89 6768.83
vn 0.0933901 0.948206 0.303618
vt 1923.68 7530.89
vt 3717.31 4863.91
f 35/140/52 39/141/52 37/142/52

vt 3900.32 5675.47
vn 0.0972689 0.987587 0.12333
vt 5830.17 4134.29
v 3.13655 175.831 -284
vt 7021.03 9682.02
f 39/143/53 35/144/53 40/145/53

vt 9406.67 7550.65
vn 0.106951 0.987173 0.118536
vt 7581.84 9218.53
vt 6030.83 3760.53
f 34/146/54 40/147/54 35/148/54

vt -123.486 6874.22
vn -2.01031e-015 0.992293 0.123917
vt 123.486 6874.22
vt 123.486 11952.7
v -3.13655 175.831 -284
vt -123.486 11952.7
f 10/149/55 39/150/55 40/151/55 41/152/55 

vt -7420.43 9381.89
vn -0.10689 0.986608 0.123207
vt -9276.96 7749.37
vt -4118.05 5523.71
f 41/153/56 9/154/56 10/155/56

vt 5369.61 4016.92
vn 0.0861703 0.874902 0.476572
vt 5836.8 5383.7
vt 2950.99 4516.77
f 16/156/57 36/157/57 14/158/57

vt 6483.06 4196.99
vn 0.229943 0.842244 0.487598
vt 5722.32 2969.14
vt 10973.1 1682.97
f 36/159/58 16/160/58 28/161/58

vt 10039.6 1053.94
vn 0.240706 0.7935 0.558944
vt 10982.8 2270.7
vt 5698.28 3410.03
f 18/162/59 28/163/59 16/164/59

vt 10844.2 1311.07
vn 0.355751 0.739515 0.571453
vt 9767.12 211.036
vt 14728.2 -1958.5
f 28/165/60 18/166/60 22/167/60

vt 6683.29 1744.89
vn 0.252548 0.925042 0.283756
vt 10391.5 -1822.94
vt 7939.68 3270.92
f 36/168/61 28/169/61 29/170/61

vt -12253.2 956.084
vn -0.314657 0.942987 0.108473
v -257.223 119.889 -284
vt -13871.1 -4020.86
vt -7488.95 -785.598
f 8/171/62 42/172/62 7/173/62

v -257.223 108.99 -156
vt -8650 -6426.83
vn -0.289326 0.953779 0.0812129
vt -7308.41 -1415.7
vt -13501.9 -4998.93
f 43/174/63 7/175/63 42/176/63

v -257.223 98.0911 -108
vt -9472.45 -3830.2
vn -0.283666 0.93512 0.212331
vt -8010.54 1630.73
vt -10985.3 -2619.2
f 44/177/64 7/178/64 43/179/64

vt -7939.68 3270.92
vn -0.252548 0.925042 0.283756
vt -10391.5 -1822.94
vt -6683.29 1744.89
f 7/180/65 44/181/65 4/182/65

vt -6483.06 4196.99
vn -0.229943 0.842244 0.487598
vt -10973.1 1682.97
vt -5722.32 2969.14
f 4/183/66 44/184/66 2/185/66

v -244.917 79.2829 -76
vt -10039.6 1053.94
vn -0.240706 0.7935 0.558944
vt -5698.28 3410.03
vt -10982.8 2270.7
f 45/186/67 2/187/67 44/188/67

vt -5567.53 4309.57
vn -0.208462 0.687207 0.69591
vt -10095.5 2335.83
vn -0.255385 0.456041 0.852529
v -31.2789 79.2789 -12
vt -1315.23 2335.62
f 2/189/68 45/190/69 46/191/69

v -40.8679 64.928 -12
vt -1676.87 2508.76
vn -0.281834 0.188315 0.940801
vt -1315.23 3084.05
vt -10095.5 3084.21
f 47/192/70 46/193/69 45/194/69

vt -1676.73 2550.4
vn -0.294998 0.0586787 0.953694
vt -10096 3116.53
v -44 49.1819 -12
vt -1794.53 1929.41
f 47/195/71 45/196/71 48/197/71

v -355.565 20.1406 -76
vt -14306.9 526.584
vn -0.220035 0.411657 0.884377
vt -1795.1 1781.18
vt -10079.6 3081.55
f 49/198/72 48/199/72 45/200/72

vt -1791.92 1936.3
vn -0.201213 -1.62789e-016 0.979547
vt -14314.4 792.935
v -44 0 -12
vt -1791.92 -1.85937e-014
f 48/201/73 49/202/73 50/203/73

v -380.106 0 -76
vt -15260.4 31.1274
vn -0.182378 0.222228 0.957786
vt -1790.08 31.1274
vt -14311.2 844.399
f 51/204/74 50/205/74 49/206/74

vt -14149.3 -133.709
vn -0.325735 0.396909 0.858114
v -464.407 2.10213e-027 -108
vt -18602.6 -997.607
vt -15052.6 -997.607
f 49/207/75 52/208/75 51/209/75

vt -18292.2 -2899.6
vn -0.318976 0.687854 0.652005
vt -13889.4 -1807.17
v -373.429 42.1887 -108
vt -15074.8 -611.282
f 52/210/76 49/211/76 53/212/76

vt -13735 -2090.06
vn -0.3555 0.665093 0.656713
vt -9904.11 1028
vt -14953.3 -927.652
f 49/213/77 45/214/77 53/215/77

vt -10844.2 1311.07
vn -0.355751 0.739515 0.571453
vt -14728.2 -1958.5
vt -9767.12 211.036
f 44/216/78 53/217/78 45/218/78

vt -9876.73 -3755.51
vn -0.424708 0.882858 0.200464
vt -10120.6 -9355.49
vt -8167.77 -4669.18
f 43/219/79 53/220/79 44/221/79

vt -13550.8 -5318.64
vn -0.347603 0.864891 0.362127
vt -11558.9 -79.2312
v -528.407 0 -156
vt -19261.2 -8627.62
f 53/222/80 43/223/80 54/224/80

vt -11503.6 -329.528
vn -0.349409 0.869383 0.349409
v -656.407 5.12949e-030 -284
vt -26179.8 -9013.23
vt -19053.1 -9013.23
f 43/225/81 55/226/81 54/227/81

vt -17806 -20822.1
vn -0.286691 0.954569 0.0812801
vt -8671.07 -6422.47
vt -13519.4 -4982.51
f 55/228/82 43/229/82 42/230/82

vt -15021 354.968
vn -0.281174 0.9362 0.21088
v -752.407 5.12949e-030 -412
vt -30749.8 -13074.6
vt -24450.6 -13074.6
f 42/231/83 56/232/83 55/233/83

vt -14312.7 -3272.41
vn -0.366913 0.791228 0.489217
vt -20327.8 -5988.54
vt -17178.2 -5988.54
f 53/234/84 54/235/84 52/236/84

vt -1317.83 2655.84
vn -0.341115 0.510515 0.789313
vt -799.193 3094.88
vt -5699.31 4323.53
f 46/237/85 3/238/2 2/239/2

