# Alias OBJ Model File
# Exported from SketchUp, (c) 2000-2012 Trimble Navigation Limited
# File units = meters

mtllib tunnel_mountain.mtl

g Mesh1 Model

usemtl FrontColor
v -62.4289 121.851 -76
vt -2920.21 4635.41
vn -0.0846933 0.859905 0.503378
v -124.858 115.703 -76
vt -5343.98 4161.18
vn -0.220463 0.709537 0.669293
v -16.928 88.8679 -12
vt -735.607 2091.48
f 1/1/1 2/2/2 3/3/2

vt -5399.45 3847.8
vn -0.0876692 0.89012 0.447214
vt -2987.53 4378.99
v -65.5655 153.697 -140
vt -3593.43 7130.15
v -131.131 147.24 -140
vt -6126.53 6572.28
f 2/4/3 1/5/3 4/6/3 5/7/3 

v -3.13655 159.846 -140
vt -1181.5 7661.34
v 0 128 -76
vt -575.603 4910.18
f 6/8/3 4/6/3 1/5/3 7/9/3 

vt -519.348 5049.89
vn -0.0856613 0.869734 0.48603
vt -2939.87 4559.38
vn -0.125011 0.848325 0.514507
v -2.88765e-015 92.2351 -12
vt -82.0023 2196.79
f 7/10/4 1/11/5 8/12/5

vt -774.787 2193.21
vn -0.164008 0.824526 0.541534
vt -136.94 2427.5
vt -3219.6 4488.19
f 3/13/6 8/14/5 1/15/5

vt 519.348 5049.89
vn 0.0856613 0.869734 0.48603
vt 82.0023 2196.79
vn 0.125011 0.848325 0.514507
v 62.4289 121.851 -76
vt 2939.87 4559.38
f 7/16/7 8/17/8 9/18/8

v 16.928 88.8679 -12
vt 774.787 2193.21
vn 0.164008 0.824526 0.541534
vt 3219.6 4488.19
vt 136.94 2427.5
f 10/19/9 9/20/8 8/21/8

vt 2920.21 4635.41
vn 0.0846933 0.859905 0.503378
vt 735.607 2091.48
vn 0.220463 0.709537 0.669293
v 124.858 115.703 -76
vt 5343.98 4161.18
f 9/22/10 10/23/11 11/24/11

v 31.2789 79.2789 -12
vt 1317.83 2655.84
vn 0.341115 0.510515 0.789313
vt 5699.31 4323.53
vt 799.193 3094.88
f 12/25/12 11/26/11 10/27/11

vt 5567.53 4309.57
vn 0.208462 0.687207 0.69591
vt 1315.23 2335.62
vn 0.255385 0.456041 0.852529
v 244.917 79.2829 -76
vt 10095.5 2335.83
f 11/28/13 12/29/14 13/30/14

v 40.8679 64.928 -12
vt 1676.87 2508.76
vn 0.281834 0.188315 0.940801
vt 10095.5 3084.21
vt 1315.23 3084.05
f 14/31/15 13/32/14 12/33/14

vt 1676.73 2550.4
vn 0.294998 0.0586787 0.953694
v 44 49.1819 -12
vt 1794.53 1929.41
vt 10096 3116.53
f 14/34/16 15/35/16 13/36/16

v 355.565 20.1406 -76
vt 14306.9 526.584
vn 0.220035 0.411657 0.884377
vt 10079.6 3081.55
vt 1795.1 1781.18
f 16/37/17 13/38/17 15/39/17

vt 12238.1 -5370.2
vn 0.42163 0.788814 0.447214
v 373.429 46.8763 -140
vt 14478.4 -3657.65
v 257.223 108.99 -140
vt 11149.5 321.036
vt 9068.51 -1581.85
f 16/40/18 17/41/18 18/42/18 13/43/18 

v 380.106 -2.31012e-014 -76
vt 11613.3 -6845.58
vn 0.567419 0.691402 0.447214
v 400.407 24.7363 -140
vt 14086.9 -5497.61
vt 13429.5 -4291.12
vt 11015.2 -5748.05
f 19/44/19 20/45/19 17/46/19 16/47/19 

vt 11786.3 -6860.8
vn 0.547067 0.70771 0.447062
v 432.407 0 -140
vt 15040.4 -6860.8
vt 14243.2 -5482.36
f 19/48/20 21/49/20 20/50/20

vt 15260.4 31.1274
vn 0.182378 0.222228 0.957786
vt 14311.2 844.399
v 44 -4.2306e-016 -12
vt 1790.08 31.1274
f 19/51/21 16/52/21 22/53/21

vt 1791.92 1936.3
vn 0.201213 0 0.979547
vt 1791.92 -1.66559e-014
vt 14314.4 792.935
f 15/54/22 22/55/22 16/56/22

vt 9841.24 -314.837
vn 0.259639 0.855913 0.447214
vt 11525.3 1946.88
v 131.131 147.24 -140
vt 7232.14 4858.94
vt 5753.46 2457.92
f 13/57/23 18/58/23 23/59/23 11/60/23 

vt 2987.53 4378.99
vn 0.0876692 0.89012 0.447214
vt 5399.45 3847.8
vt 6126.53 6572.28
v 65.5655 153.697 -140
vt 3593.43 7130.15
f 9/61/24 11/62/24 23/63/24 24/64/24 

v 3.13655 159.846 -140
vt 1181.5 7661.34
vt 575.603 4910.18
f 24/64/24 25/65/24 7/66/24 9/61/24 

vt 123.486 7738.18
vn -2.30011e-014 0.895288 0.445488
vt -123.486 7738.18
vt -1.54487e-010 4923.79
f 25/67/25 6/68/25 7/69/25

v -257.223 108.99 -140
vt -11525.3 1946.88
vn -0.259639 0.855913 0.447214
v -244.917 79.2829 -76
vt -9841.24 -314.837
vt -5753.46 2457.92
vt -7232.14 4858.94
f 26/70/26 27/71/26 2/72/26 5/73/26 

v -373.429 46.8763 -140
vt -14478.4 -3657.65
vn -0.42163 0.788814 0.447214
v -355.565 20.1406 -76
vt -12238.1 -5370.2
vt -9068.51 -1581.85
vt -11149.5 321.036
f 28/74/27 29/75/27 27/76/27 26/77/27 

v -400.407 24.7363 -140
vt -14086.9 -5497.61
vn -0.567419 0.691402 0.447214
v -380.106 0 -76
vt -11613.3 -6845.58
vt -11015.2 -5748.05
vt -13429.5 -4291.12
f 30/78/28 31/79/28 29/80/28 28/81/28 

v -432.407 0 -140
vt -15040.4 -6860.8
vn -0.547067 0.70771 0.447062
vt -11786.3 -6860.8
vt -14243.2 -5482.36
f 32/82/29 31/83/29 30/84/29

vt -15260.4 31.1274
vn -0.182378 0.222228 0.957786
v -44 0 -12
vt -1790.08 31.1274
vt -14311.2 844.399
f 31/85/30 33/86/30 29/87/30

v -44 49.1819 -12
vt -1791.92 1936.3
vn -0.201213 -1.83137e-016 0.979547
vt -14314.4 792.935
vt -1791.92 -2.09179e-014
f 34/88/31 29/89/31 33/90/31

vt -14306.9 526.584
vn -0.220035 0.411657 0.884377
vt -1795.1 1781.18
vt -10079.6 3081.55
f 29/91/32 34/92/32 27/93/32

v -40.8679 64.928 -12
vt -1676.73 2550.4
vn -0.294998 0.0586787 0.953694
vt -10096 3116.53
vt -1794.53 1929.41
f 35/94/33 27/95/33 34/96/33

vt -1676.87 2508.76
vn -0.281834 0.188315 0.940801
v -31.2789 79.2789 -12
vt -1315.23 3084.05
vn -0.255385 0.456041 0.852529
vt -10095.5 3084.21
f 35/97/34 36/98/35 27/99/35

vt -5567.53 4309.57
vn -0.208462 0.687207 0.69591
vt -10095.5 2335.83
vt -1315.23 2335.62
f 2/100/36 27/101/35 36/102/35

vt -1317.83 2655.84
vn -0.341115 0.510515 0.789313
vt -799.193 3094.88
vt -5699.31 4323.53
f 36/103/37 3/104/2 2/105/2

